<svg width="48" height="48" viewBox="0 0 48 48" fill="none" xmlns="http://www.w3.org/2000/svg">
<rect width="48" height="48.0002" rx="4" fill="#19191D"/>
<path fill-rule="evenodd" clip-rule="evenodd" d="M22.1155 15.174H13C12.4477 15.174 12 15.6217 12 16.1739C12 16.7262 12.4477 17.1739 13 17.1739L22.1155 17.174C22.5449 18.9962 24.1212 20.3478 26 20.3478C27.8788 20.3478 29.4551 18.9962 29.8845 17.1739L35 17.174C35.5523 17.174 36 16.7262 36 16.174C36 15.6217 35.5523 15.174 35 15.174H29.8845C29.4551 13.3517 27.8788 12 26 12C24.1212 12 22.5449 13.3517 22.1155 15.174ZM26 18.3478C24.9748 18.3478 24 17.4556 24 16.1739C24 14.8922 24.9748 14 26 14C27.0252 14 28 14.8922 28 16.1739C28 17.4556 27.0252 18.3478 26 18.3478ZM15.1155 25.5216C15.5449 27.3438 17.1212 28.6955 19 28.6955C20.881 28.6955 22.4588 27.3407 22.886 25.5152C22.9234 25.5194 22.9614 25.5216 23 25.5216H35C35.5523 25.5216 36 25.0739 36 24.5216C36 23.9693 35.5523 23.5216 35 23.5216H23C22.9614 23.5216 22.9234 23.5238 22.886 23.528C22.4588 21.7025 20.881 20.3477 19 20.3477C17.1212 20.3477 15.5449 21.6993 15.1155 23.5216H13C12.4477 23.5216 12 23.9693 12 24.5216C12 25.0739 12.4477 25.5216 13 25.5216H15.1155ZM19 26.6955C17.9748 26.6955 17 25.8033 17 24.5216C17 23.2399 17.9748 22.3477 19 22.3477C20.0252 22.3477 21 23.2399 21 24.5216C21 25.8033 20.0252 26.6955 19 26.6955ZM13 30.8262H25.1156C25.545 29.004 27.1212 27.6523 29 27.6523C30.881 27.6523 32.4587 29.0071 32.886 30.8326C32.9234 30.8284 32.9614 30.8262 33 30.8262H35C35.5523 30.8262 36 31.2739 36 31.8262C36 32.3785 35.5523 32.8262 35 32.8262H33C32.9615 32.8262 32.9234 32.824 32.886 32.8197C32.4588 34.6453 30.8811 36.0002 29 36.0002C27.1212 36.0002 25.5449 34.6485 25.1155 32.8262H13C12.4477 32.8262 12 32.3785 12 31.8262C12 31.2739 12.4477 30.8262 13 30.8262ZM27 31.8263C27 33.1079 27.9748 34.0002 29 34.0002C30.0252 34.0002 31 33.108 31 31.8263C31 30.5446 30.0252 29.6523 29 29.6523C27.9748 29.6523 27 30.5446 27 31.8263Z" fill="#5DBF84"/>
</svg>
